{"title":"Chopper[2000]-AC3-5.1-DVDrip-Maka6358.avi","uid":4836472,"size":1468579826,"categoryP":"video","categoryS":"movies","magnet":"?xt=urn:btih:732d336b1c0985141fdc628dc31f27415519ac82&amp;dn=Chopper%5B2000%5D-AC3-5.1-DVDrip-Maka6358.avi&amp;tr=udp%3A%2F%2Ftracker.openbittorrent.com%3A80&amp;tr=udp%3A%2F%2Fopen.demonii.com%3A1337&amp;tr=udp%3A%2F%2Ftracker.coppersurfer.tk%3A6969&amp;tr=udp%3A%2F%2Fexodus.desync.com%3A6969","seeders":1,"leechers":0,"uploader":"Maka6358","files":4,"time":1239334847,"description":"Chopper tells the intense story of Mark &quot;Chopper&quot; Read, a legendary criminal who wrote his autobiography while serving a murder sentence in prison. His book, From the Inside, upon which the film is based, was a best-seller.\n &lt;a href=&quot;\nhttp://www.imdb.com/title/tt0221073/&quot; rel=&quot;nofollow&quot; target=&quot;_NEW&quot;&gt;\nhttp://www.imdb.com/title/tt0221073/&lt;/a&gt;\n\nGeneral\nComplete name                    : Chopper[2000]-AC3-5.1-DVDrip-Maka6358.aviChopper info.txt\nFile size                        : 271 Bytes\n\nGeneral\nComplete name                    : Chopper[2000]-AC3-5.1-DVDrip-Maka6358.avi\nFormat                           : AVI\nFormat/Info                      : Audio Video Interleave\nFile size                        : 1.37 GiB\nDuration                         : 1h 30mn\nOverall bit rate                 : 2 172 Kbps\nWriting application              : VirtualDubMod 1.5.4.1 (build 2178/release)\nWriting library                  : VirtualDubMod build 2178/release\n\nVideo\nFormat                           : MPEG-4 Visual\nFormat profile                   : Streaming Video@L1\nFormat settings, BVOP            : Yes\nFormat settings, QPel            : No\nFormat settings, GMC             : No warppoints\nFormat settings, Matrix          : Custom\nCodec ID                         : XVID\nCodec ID/Hint                    : XviD\nDuration                         : 1h 30mn\nBit rate                         : 1 718 Kbps\nWidth                            : 720 pixels\nHeight                           : 416 pixels\nDisplay aspect ratio             : 16/9\nFrame rate                       : 25.000 fps\nResolution                       : 24 bits\nColorimetry                      : 4:2:0\nScan type                        : Progressive\nBits/(Pixel*Frame)               : 0.229\nStream size                      : 1.08 GiB (79%)\nWriting library                  : XviD 1.2.0.dev47 (UTC 2006-11-01)\n\nAudio\nFormat                           : AC-3\nFormat/Info                      : Audio Coding 3\nCodec ID                         : 2000\nDuration                         : 1h 30mn\nBit rate mode                    : Constant\nBit rate                         : 448 Kbps\nChannel(s)                       : 6 channels\nChannel positions                : Front: L C R, Surround: L R, LFE\nSampling rate                    : 48.0 KHz\nVideo delay                      : 7ms\nStream size                      : 288 MiB (21%)\nAlignment                        : Split accross interleaves\nInterleave, duration             : 96 ms (2.40 video frames)\nInterleave, preload duration     : 96 ms\nLanguage                         : English\n\nGeneral\nComplete name                    :\nFile size                        : 47.0 Bytes\n\nGeneral\nComplete name                    :\nFormat                           : JPEG\nFile size                        : 127 KiB\n\nImage\nFormat                           : JPEG\nWidth                            : 200 pixels\nHeight                           : 225 pixels\nResolution                       : 24 bits\n\nInfo Hash                      : 732D336B1C0985141FDC628DC31F27415519AC82","torrent":{"xt":"urn:btih:732d336b1c0985141fdc628dc31f27415519ac82","amp;dn":"Chopper%5B2000%5D-AC3-5.1-DVDrip-Maka6358.avi","amp;tr":["udp%3A%2F%2Ftracker.openbittorrent.com%3A80","udp%3A%2F%2Fopen.demonii.com%3A1337","udp%3A%2F%2Ftracker.coppersurfer.tk%3A6969","udp%3A%2F%2Fexodus.desync.com%3A6969"],"infoHash":"732d336b1c0985141fdc628dc31f27415519ac82","infoHashBuffer":{"type":"Buffer","data":[115,45,51,107,28,9,133,20,31,220,98,141,195,31,39,65,85,25,172,130]},"announce":[],"urlList":[]}}